<?xml version="1.0" encoding="UTF-8" standalone="no"?>
<!DOCTYPE svg PUBLIC "-//W3C//DTD SVG 1.1//EN" "http://www.w3.org/Graphics/SVG/1.1/DTD/svg11.dtd">
<svg xmlns="http://www.w3.org/2000/svg" version="1.1" viewBox="0.00 0.00 180.00 180.00">
<path fill="#ffffff" d="
  M 54.43 95.61
  L 48.32 93.02
  A 0.31 0.31 0.0 0 1 48.13 92.77
  L 40.39 28.31
  A 0.31 0.31 0.0 0 1 40.83 27.99
  L 159.97 80.18
  A 0.31 0.31 0.0 0 1 160.03 80.72
  L 156.57 83.19
  A 0.31 0.31 0.0 0 1 156.27 83.22
  L 48.18 35.81
  A 0.31 0.31 0.0 0 0 47.74 36.13
  L 54.86 95.29
  A 0.31 0.31 0.0 0 1 54.43 95.61
  Z"
/>
<path fill="#ffffff" d="
  M 122.84 108.86
  L 146.24 118.85
  A 0.43 0.43 0.0 0 1 146.46 119.41
  L 140.96 132.22
  Q 140.75 132.71 140.27 132.50
  Q 124.98 126.03 109.98 119.54
  C 108.75 119.01 107.37 118.76 106.09 118.20
  Q 94.04 112.93 83.26 108.12
  Q 82.85 107.94 83.03 107.52
  L 88.53 94.69
  A 0.47 0.47 0.0 0 1 89.15 94.44
  L 105.87 101.64
  Q 106.49 101.90 107.03 101.50
  L 130.49 84.11
  Q 130.96 83.77 130.43 83.54
  L 59.22 52.39
  Q 58.29 51.98 58.41 52.99
  L 63.99 99.25
  Q 64.06 99.89 63.48 99.63
  L 60.83 98.44
  Q 60.25 98.17 60.17 97.54
  L 53.79 44.28
  Q 53.72 43.73 54.23 43.95
  L 151.37 86.48
  A 0.34 0.34 0.0 0 1 151.43 87.06
  L 122.77 108.31
  Q 122.32 108.64 122.84 108.86
  Z"
/>
<path fill="#ffffff" d="
  M 57.01 113.40
  L 61.85 153.36
  A 0.31 0.31 0.0 0 1 61.72 153.65
  L 56.40 157.57
  A 0.31 0.31 0.0 0 1 55.91 157.36
  L 50.29 110.80
  A 0.31 0.31 0.0 0 1 50.73 110.48
  L 56.83 113.15
  A 0.31 0.31 0.0 0 1 57.01 113.40
  Z"
/>
<path fill="#ffffff" d="
  M 68.17 130.34
  L 78.47 122.70
  A 0.32 0.32 0.0 0 1 78.79 122.66
  L 93.82 129.23
  A 0.32 0.32 0.0 0 1 93.89 129.78
  L 66.90 149.81
  A 0.32 0.32 0.0 0 1 66.39 149.59
  L 62.41 116.07
  A 0.32 0.32 0.0 0 1 62.85 115.73
  L 65.96 117.10
  A 0.32 0.32 0.0 0 1 66.15 117.35
  L 67.67 130.12
  A 0.32 0.32 0.0 0 0 68.17 130.34
  Z"
/>
</svg>
