<?xml version="1.0" encoding="UTF-8" standalone="no"?>
<!DOCTYPE svg PUBLIC "-//W3C//DTD SVG 1.1//EN" "http://www.w3.org/Graphics/SVG/1.1/DTD/svg11.dtd">
<svg xmlns="http://www.w3.org/2000/svg" version="1.1" viewBox="0.00 0.00 180.00 180.00">
<path fill="#017f80" d="
  M 54.46 95.70
  L 48.30 93.03
  A 0.31 0.31 0.0 0 1 48.12 92.78
  L 40.37 28.29
  A 0.31 0.31 0.0 0 1 40.81 27.97
  L 159.99 80.15
  A 0.31 0.31 0.0 0 1 160.04 80.69
  L 156.59 83.20
  A 0.31 0.31 0.0 0 1 156.29 83.24
  L 48.21 35.84
  A 0.31 0.31 0.0 0 0 47.77 36.16
  L 54.90 95.37
  A 0.31 0.31 0.0 0 1 54.46 95.70
  Z"
/>
<path fill="#017f80" d="
  M 145.42 120.68
  L 139.75 133.96
  A 0.32 0.32 0.0 0 1 139.33 134.12
  L 81.97 109.62
  A 0.32 0.32 0.0 0 1 81.80 109.20
  L 87.47 96.04
  A 0.32 0.32 0.0 0 1 87.89 95.87
  L 104.68 103.03
  A 0.32 0.32 0.0 0 0 105.00 102.99
  L 130.46 84.11
  A 0.32 0.32 0.0 0 0 130.39 83.56
  L 58.82 52.23
  A 0.32 0.32 0.0 0 0 58.38 52.57
  L 64.02 99.35
  A 0.32 0.32 0.0 0 1 63.58 99.69
  L 60.42 98.30
  A 0.32 0.32 0.0 0 1 60.23 98.05
  L 53.78 44.28
  A 0.32 0.32 0.0 0 1 54.22 43.94
  L 151.40 86.50
  A 0.32 0.32 0.0 0 1 151.47 87.05
  L 121.20 109.51
  A 0.32 0.32 0.0 0 0 121.26 110.06
  L 145.25 120.26
  A 0.32 0.32 0.0 0 1 145.42 120.68
  Z"
/>
<path fill="#017f80" d="
  M 57.04 113.38
  L 61.87 153.36
  A 0.32 0.32 0.0 0 1 61.74 153.65
  L 56.39 157.64
  A 0.32 0.32 0.0 0 1 55.88 157.42
  L 50.28 110.79
  A 0.32 0.32 0.0 0 1 50.72 110.46
  L 56.85 113.13
  A 0.32 0.32 0.0 0 1 57.04 113.38
  Z"
/>
<path fill="#017f80" d="
  M 78.78 122.64
  L 93.83 129.23
  A 0.32 0.32 0.0 0 1 93.90 129.78
  L 66.93 149.80
  A 0.32 0.32 0.0 0 1 66.42 149.58
  L 62.41 116.17
  A 0.32 0.32 0.0 0 1 62.86 115.85
  L 66.03 117.33
  A 0.32 0.32 0.0 0 1 66.21 117.59
  L 67.69 130.10
  A 0.32 0.32 0.0 0 0 68.19 130.32
  L 78.46 122.68
  A 0.32 0.32 0.0 0 1 78.78 122.64
  Z"
/>
</svg>
